<?xml version="1.0" encoding="UTF-8"?>
<!DOCTYPE svg PUBLIC "-//W3C//DTD SVG 1.1//EN" "http://www.w3.org/Graphics/SVG/1.1/DTD/svg11.dtd">
<svg xmlns="http://www.w3.org/2000/svg" version="1.1" width="225px" height="225px" style="shape-rendering:geometricPrecision; text-rendering:geometricPrecision; image-rendering:optimizeQuality; fill-rule:evenodd; clip-rule:evenodd" xmlns:xlink="http://www.w3.org/1999/xlink">
<g><path style="opacity:1" fill="#c9d6d8" d="M 158.5,23.5 C 167.52,27.6741 176.187,32.3407 184.5,37.5C 185.15,39.4352 185.483,41.4352 185.5,43.5C 183.738,43.3573 182.071,43.6906 180.5,44.5C 179.304,44.1543 179.304,43.6543 180.5,43C 177.639,42.4601 174.972,41.4601 172.5,40C 175.14,39.161 177.473,39.661 179.5,41.5C 179.833,41 180.167,40.5 180.5,40C 177.988,33.2874 174.655,32.7874 170.5,38.5C 167.924,37.7178 165.924,36.2178 164.5,34C 165.167,33.6667 165.833,33.3333 166.5,33C 164.801,32.6068 163.301,33.1068 162,34.5C 160.349,33.2576 158.515,32.4243 156.5,32C 158.044,31.7104 159.377,31.0437 160.5,30C 157.997,29.8706 155.997,28.8706 154.5,27C 156.55,26.5838 157.884,25.4171 158.5,23.5 Z"/></g>
<g><path style="opacity:1" fill="#cdd3d8" d="M 158.5,23.5 C 157.884,25.4171 156.55,26.5838 154.5,27C 155.997,28.8706 157.997,29.8706 160.5,30C 159.377,31.0437 158.044,31.7104 156.5,32C 158.515,32.4243 160.349,33.2576 162,34.5C 163.301,33.1068 164.801,32.6068 166.5,33C 165.833,33.3333 165.167,33.6667 164.5,34C 165.924,36.2178 167.924,37.7178 170.5,38.5C 174.655,32.7874 177.988,33.2874 180.5,40C 180.167,40.5 179.833,41 179.5,41.5C 177.473,39.661 175.14,39.161 172.5,40C 174.972,41.4601 177.639,42.4601 180.5,43C 179.304,43.6543 179.304,44.1543 180.5,44.5C 182.071,43.6906 183.738,43.3573 185.5,43.5C 185.483,41.4352 185.15,39.4352 184.5,37.5C 189.24,39.2858 193.407,41.9525 197,45.5C 198.801,87.8328 190.134,127.833 171,165.5C 157.144,189.022 137.478,205.689 112,215.5C 85.7495,205.375 65.7495,188.042 52,163.5C 38.6541,138.127 30.9874,111.127 29,82.5C 27.8749,70.1678 27.2082,57.8345 27,45.5C 51.2703,28.617 77.7703,16.4503 106.5,9C 115.417,8.51534 124.083,9.84867 132.5,13C 141.305,16.2388 149.972,19.7388 158.5,23.5 Z M 93.5,74.5 C 93.8333,74.5 94.1667,74.5 94.5,74.5C 91.8347,77.3347 89.3347,80.3347 87,83.5C 86.8794,88.1984 88.546,88.5317 92,84.5C 93.4798,87.6626 95.9798,89.496 99.5,90C 103.486,90.4988 107.486,90.6655 111.5,90.5C 105.468,91.7668 99.3014,92.7668 93,93.5C 92.4926,94.9961 92.9926,96.1627 94.5,97C 97.0722,99.2868 100.072,100.453 103.5,100.5C 108.167,101.167 112.833,101.833 117.5,102.5C 112.073,102.782 106.74,102.449 101.5,101.5C 96.4003,100.403 91.4003,99.2366 86.5,98C 85.9781,98.5613 85.6448,99.228 85.5,100C 86.7835,104.06 88.4502,107.894 90.5,111.5C 88.1153,109.116 86.1153,106.45 84.5,103.5C 84.2287,101.688 83.562,100.022 82.5,98.5C 81.5497,101.354 81.883,104.02 83.5,106.5C 85.1243,111.747 87.791,116.414 91.5,120.5C 83.7275,120.672 79.3941,124.672 78.5,132.5C 77.5987,131.71 76.9321,130.71 76.5,129.5C 68.5544,109.462 72.2211,91.962 87.5,77C 89.4068,75.878 91.4068,75.0447 93.5,74.5 Z M 71.5,63.5 C 72.4345,64.5676 72.7678,65.901 72.5,67.5C 68.3148,68.5565 67.6481,70.7232 70.5,74C 69.2899,75.0391 68.2899,76.2058 67.5,77.5C 61.6903,75.3612 58.0236,71.3612 56.5,65.5C 57.8959,67.7625 59.5625,69.9291 61.5,72C 62.448,72.4828 63.448,72.6495 64.5,72.5C 63.842,69.8445 63.1754,67.1778 62.5,64.5C 62.577,62.701 63.077,61.0344 64,59.5C 64.6924,60.0253 65.1924,60.6919 65.5,61.5C 63.9426,65.1547 64.4426,68.488 67,71.5C 67.2895,69.0481 67.9562,66.7148 69,64.5C 70.4609,65.8825 71.2942,65.5492 71.5,63.5 Z M 125.5,47.5 C 129.02,52.1823 133.353,56.0156 138.5,59C 141.393,60.1488 144.393,60.6488 147.5,60.5C 148.423,62.767 149.256,65.1003 150,67.5C 150.816,68.8228 151.983,69.4894 153.5,69.5C 155.559,71.5945 157.893,73.4278 160.5,75C 159.745,77.1748 158.912,79.3415 158,81.5C 157.685,78.8532 156.518,78.1865 154.5,79.5C 154.264,78.7528 153.93,77.9195 153.5,77C 150.128,76.8655 146.961,76.0322 144,74.5C 141.03,75.022 140.196,76.522 141.5,79C 146.27,80.2083 149.603,83.0416 151.5,87.5C 154.052,86.5598 154.886,87.5598 154,90.5C 152.456,93.2636 151.289,93.0969 150.5,90C 149.099,89.5899 147.766,89.0899 146.5,88.5C 147.684,87.3121 147.684,86.1455 146.5,85C 141.92,82.1399 137.087,81.3065 132,82.5C 128.841,81.1776 127.007,78.8442 126.5,75.5C 128.167,73.1917 130.5,71.6917 133.5,71C 129.762,68.8566 126.762,69.6899 124.5,73.5C 124.565,73.9382 124.399,74.2716 124,74.5C 121.228,72.2389 118.062,70.7389 114.5,70C 107.656,69.0102 100.99,69.5102 94.5,71.5C 78.1431,78.0147 69.8097,90.1813 69.5,108C 69.3339,114.832 70.6673,121.332 73.5,127.5C 69.5006,122.846 66.5006,117.512 64.5,111.5C 63.7261,110.289 62.8928,110.289 62,111.5C 62.5551,102.661 65.0551,94.3277 69.5,86.5C 67.6707,85.7176 66.1707,86.3843 65,88.5C 64.8333,88 64.6667,87.5 64.5,87C 65.6513,84.5351 66.6513,82.0351 67.5,79.5C 71.9645,75.5368 76.2978,71.3702 80.5,67C 79.2068,66.51 77.8734,66.3433 76.5,66.5C 80.2137,63.9287 84.2137,61.9287 88.5,60.5C 95.7404,59.729 102.907,59.729 110,60.5C 110.5,60 111,59.5 111.5,59C 110.263,58.7679 109.263,58.2679 108.5,57.5C 111.167,57.5 113.833,57.5 116.5,57.5C 119.096,56.9451 121.429,55.9451 123.5,54.5C 123.833,54.5 124.167,54.5 124.5,54.5C 126.837,56.6664 129.337,58.6664 132,60.5C 132.167,60.1667 132.333,59.8333 132.5,59.5C 129.639,55.7729 127.305,51.7729 125.5,47.5 Z M 117.5,50.5 C 118.167,50.8333 118.833,51.1667 119.5,51.5C 120.091,52.1515 120.757,52.8182 121.5,53.5C 119.219,54.2617 117.886,53.2617 117.5,50.5 Z M 123.5,44.5 C 124.906,44.9731 125.573,45.9731 125.5,47.5C 124.5,47.1667 123.833,46.5 123.5,45.5C 123.5,45.1667 123.5,44.8333 123.5,44.5 Z M 121.5,95.5 C 117.609,97.0074 113.442,97.6741 109,97.5C 105.38,97.5842 101.88,97.0842 98.5,96C 106.152,96.7157 113.819,96.5491 121.5,95.5 Z M 92.5,104.5 C 90.9153,103.998 90.4153,102.998 91,101.5C 92.0386,102.244 92.5386,103.244 92.5,104.5 Z M 135.5,105.5 C 138.056,106.543 140.223,108.21 142,110.5C 142.692,111.437 142.525,112.103 141.5,112.5C 137.966,112.701 134.299,112.701 130.5,112.5C 131.209,111.596 132.209,111.263 133.5,111.5C 137.667,110.519 138.334,108.519 135.5,105.5 Z M 131.5,115.5 C 133.415,115.216 135.081,115.549 136.5,116.5C 133.811,118.815 134.145,120.815 137.5,122.5C 138.294,123.84 136.294,124.007 131.5,123C 129.934,122.392 128.6,121.558 127.5,120.5C 133.036,121.339 134.37,119.672 131.5,115.5 Z M 142.5,115.5 C 151.046,113.844 156.046,117.177 157.5,125.5C 155.385,129.954 153.885,134.621 153,139.5C 151.77,142.732 149.77,145.399 147,147.5C 145.208,152.225 143.041,156.725 140.5,161C 133.65,161.871 127.65,164.538 122.5,169C 120.846,169.608 119.179,170.108 117.5,170.5C 112.749,169.004 107.749,168.004 102.5,167.5C 99.7838,163.806 96.1172,161.639 91.5,161C 90.8646,155.874 88.198,152.374 83.5,150.5C 82.7225,146.538 82.5559,142.538 83,138.5C 81.6932,137.228 80.1932,136.228 78.5,135.5C 79.5207,134.099 80.5207,132.765 81.5,131.5C 82.5093,136.346 85.5093,138.18 90.5,137C 92.3289,136.727 93.8289,135.893 95,134.5C 95.3988,134.728 95.5654,135.062 95.5,135.5C 94.1562,140.716 94.4896,145.716 96.5,150.5C 96.5569,151.609 96.8902,152.609 97.5,153.5C 99.4178,157.912 102.751,160.746 107.5,162C 112.5,162.667 117.5,162.667 122.5,162C 126.245,161.698 129.578,160.531 132.5,158.5C 136.37,157.737 139.37,155.737 141.5,152.5C 147.756,144.706 152.089,135.873 154.5,126C 154.141,123.704 153.141,121.871 151.5,120.5C 150.942,119.21 149.942,118.377 148.5,118C 144.312,117.824 140.312,117.324 136.5,116.5C 138.735,116.795 140.735,116.461 142.5,115.5 Z M 91.5,122.5 C 95.3315,124.234 96.4982,127.234 95,131.5C 92.5904,134.716 89.7571,135.216 86.5,133C 88.7867,133.958 90.4534,133.124 91.5,130.5C 90.7303,128.728 89.3969,127.728 87.5,127.5C 85.2345,128.432 83.2345,129.765 81.5,131.5C 82.2865,125.715 85.6198,122.715 91.5,122.5 Z M 105.5,141.5 C 104.086,143.598 104.752,144.598 107.5,144.5C 107.56,145.043 107.893,145.376 108.5,145.5C 110.632,143.883 112.965,143.383 115.5,144C 112.652,145.95 109.486,147.117 106,147.5C 102.864,146.501 100.031,145.835 97.5,145.5C 97.5,144.167 97.5,142.833 97.5,141.5C 100.367,141.631 102.033,140.297 102.5,137.5C 103.043,137.44 103.376,137.107 103.5,136.5C 101.085,134.991 100.919,133.324 103,131.5C 103.833,133 105,134.167 106.5,135C 105.167,137 103.833,139 102.5,141C 103.448,141.483 104.448,141.649 105.5,141.5 Z M 113.5,133.5 C 113.038,138.456 110.371,141.122 105.5,141.5C 106.833,140.067 108.333,138.733 110,137.5C 109.139,134.917 110.305,133.584 113.5,133.5 Z M 78.5,144.5 C 77.0695,144.421 75.7362,144.754 74.5,145.5C 73.537,145.03 73.537,144.363 74.5,143.5C 74.5,143.167 74.5,142.833 74.5,142.5C 76.0532,140.615 78.0532,139.615 80.5,139.5C 80.6347,141.554 79.968,143.221 78.5,144.5 Z M 85.5,155.5 C 86.9953,155.415 87.9953,156.081 88.5,157.5C 87.2318,159.047 85.5652,160.047 83.5,160.5C 83.1667,160.167 82.8333,159.833 82.5,159.5C 83.5244,158.148 84.5244,156.815 85.5,155.5 Z M 94.5,170.5 C 93.8333,170.5 93.5,170.167 93.5,169.5C 94.0456,166.248 95.7123,165.248 98.5,166.5C 97.4513,168.216 96.118,169.549 94.5,170.5 Z M 129.5,166.5 C 131.344,167.204 131.844,168.537 131,170.5C 130.209,169.255 129.709,167.922 129.5,166.5 Z M 112.5,170.5 C 112.443,171.609 112.11,172.609 111.5,173.5C 110.542,173.953 109.708,174.619 109,175.5C 108.36,172.632 109.527,170.965 112.5,170.5 Z"/></g>
<g><path style="opacity:1" fill="#d73530" d="M 124.5,73.5 C 125.833,73.5 126.5,74.1667 126.5,75.5C 127.007,78.8442 128.841,81.1776 132,82.5C 137.087,81.3065 141.92,82.1399 146.5,85C 147.684,86.1455 147.684,87.3121 146.5,88.5C 144.661,87.2475 142.828,87.2475 141,88.5C 140.667,87.8333 140.333,87.1667 140,86.5C 137.519,87.2991 134.686,87.4657 131.5,87C 130.167,86 130.167,85 131.5,84C 130.906,83.5357 130.239,83.369 129.5,83.5C 128.833,83.5 128.5,83.8333 128.5,84.5C 127.167,84.8333 127.167,85.1667 128.5,85.5C 129.332,86.3285 128.999,87.1618 127.5,88C 124.883,88.8215 122.216,89.3215 119.5,89.5C 118.833,88.1667 118.167,88.1667 117.5,89.5C 119.706,91.4608 122.372,92.7941 125.5,93.5C 125.842,94.3382 126.508,94.6716 127.5,94.5C 125.889,96.0946 123.889,97.2612 121.5,98C 114.833,98.3333 108.167,98.6667 101.5,99C 102.416,99.2784 103.082,99.7784 103.5,100.5C 100.072,100.453 97.0722,99.2868 94.5,97C 92.9926,96.1627 92.4926,94.9961 93,93.5C 99.3014,92.7668 105.468,91.7668 111.5,90.5C 107.486,90.6655 103.486,90.4988 99.5,90C 95.9798,89.496 93.4798,87.6626 92,84.5C 88.546,88.5317 86.8794,88.1984 87,83.5C 89.3347,80.3347 91.8347,77.3347 94.5,74.5C 94.1667,74.5 93.8333,74.5 93.5,74.5C 93.5569,73.391 93.8902,72.391 94.5,71.5C 100.99,69.5102 107.656,69.0102 114.5,70C 118.062,70.7389 121.228,72.2389 124,74.5C 124.399,74.2716 124.565,73.9382 124.5,73.5 Z M 121.5,95.5 C 113.819,96.5491 106.152,96.7157 98.5,96C 101.88,97.0842 105.38,97.5842 109,97.5C 113.442,97.6741 117.609,97.0074 121.5,95.5 Z"/></g>
<g><path style="opacity:1" fill="#e5bfc2" d="M 37.5,49.5 C 37.5482,60.5107 37.8815,71.5107 38.5,82.5C 37.8826,82.3893 37.3826,82.056 37,81.5C 36.1745,70.6586 36.3412,59.992 37.5,49.5 Z"/></g>
<g><path style="opacity:1" fill="#c5433d" d="M 76.5,66.5 C 77.8734,66.3433 79.2068,66.51 80.5,67C 76.2978,71.3702 71.9645,75.5368 67.5,79.5C 67.5,78.8333 67.5,78.1667 67.5,77.5C 68.2899,76.2058 69.2899,75.0391 70.5,74C 67.6481,70.7232 68.3148,68.5565 72.5,67.5C 70.6495,68.8664 70.3162,70.533 71.5,72.5C 72.5237,71.1468 73.857,70.4802 75.5,70.5C 75.5,69.5 75.5,68.5 75.5,67.5C 76.1667,67.5 76.5,67.1667 76.5,66.5 Z"/></g>
<g><path style="opacity:1" fill="#d53b39" d="M 175.5,43.5 C 179.078,45.0751 182.411,47.0751 185.5,49.5C 186.496,55.7985 186.83,62.1318 186.5,68.5C 185.691,76.3841 184.691,84.3841 183.5,92.5C 183.5,94.5 183.5,96.5 183.5,98.5C 182.833,99.5 182.167,100.5 181.5,101.5C 182.422,96.5276 182.588,91.5276 182,86.5C 181.333,87.8333 180.667,87.8333 180,86.5C 179.833,85.5 179.667,84.5 179.5,83.5C 181.8,76.3785 182.133,69.3785 180.5,62.5C 180.833,62.1667 181.167,61.8333 181.5,61.5C 182.251,62.376 182.751,63.376 183,64.5C 183.333,67.8333 183.667,71.1667 184,74.5C 184.301,66.4749 184.801,58.4749 185.5,50.5C 183.396,50.7989 181.396,50.4656 179.5,49.5C 178.474,47.1688 177.14,45.1688 175.5,43.5 Z"/></g>
<g><path style="opacity:1" fill="#de3632" d="M 68.5,38.5 C 68.9175,39.2216 69.5842,39.7216 70.5,40C 66.9162,40.8263 64.9162,42.6596 64.5,45.5C 63.7189,44.2713 63.2189,42.938 63,41.5C 61.9914,42.6582 60.6581,43.3248 59,43.5C 56.8007,43.0393 54.6341,42.8727 52.5,43C 53.1616,44.3316 54.3282,45.4982 56,46.5C 61.5229,44.0899 65.0229,46.0899 66.5,52.5C 58.9142,53.3229 58.5808,55.3229 65.5,58.5C 66.4519,60.0453 66.7852,61.712 66.5,63.5C 68.1667,63.5 69.8333,63.5 71.5,63.5C 71.2942,65.5492 70.4609,65.8825 69,64.5C 67.9562,66.7148 67.2895,69.0481 67,71.5C 64.4426,68.488 63.9426,65.1547 65.5,61.5C 65.1924,60.6919 64.6924,60.0253 64,59.5C 63.077,61.0344 62.577,62.701 62.5,64.5C 63.1754,67.1778 63.842,69.8445 64.5,72.5C 63.448,72.6495 62.448,72.4828 61.5,72C 59.5625,69.9291 57.8959,67.7625 56.5,65.5C 58.0236,71.3612 61.6903,75.3612 67.5,77.5C 67.5,78.1667 67.5,78.8333 67.5,79.5C 66.6513,82.0351 65.6513,84.5351 64.5,87C 64.6667,87.5 64.8333,88 65,88.5C 66.1707,86.3843 67.6707,85.7176 69.5,86.5C 65.0551,94.3277 62.5551,102.661 62,111.5C 62.8928,110.289 63.7261,110.289 64.5,111.5C 66.5006,117.512 69.5006,122.846 73.5,127.5C 73.9731,128.906 74.9731,129.573 76.5,129.5C 76.9321,130.71 77.5987,131.71 78.5,132.5C 78.019,134.638 76.8524,136.305 75,137.5C 74.5065,139.134 74.3398,140.801 74.5,142.5C 74.5,142.833 74.5,143.167 74.5,143.5C 73.5,143.5 72.5,143.5 71.5,143.5C 71.5391,141.641 70.7058,140.308 69,139.5C 68.5078,140.549 68.6744,141.549 69.5,142.5C 69.1667,142.833 68.8333,143.167 68.5,143.5C 67.7492,142.624 67.2492,141.624 67,140.5C 65.9827,142.376 65.1494,144.376 64.5,146.5C 61.8211,147.24 59.1545,146.906 56.5,145.5C 53.4905,140.99 52.4905,136.156 53.5,131C 51.5483,130.634 49.8816,129.801 48.5,128.5C 46.41,123.723 45.0766,118.723 44.5,113.5C 43.9903,106.805 43.1569,100.138 42,93.5C 41.7216,92.5842 41.2216,91.9175 40.5,91.5C 40.5,90.8333 40.5,90.1667 40.5,89.5C 40.7907,79.4919 40.1241,69.6586 38.5,60C 38.6667,56.8333 38.8333,53.6667 39,50.5C 39.7172,49.9558 40.2172,49.2891 40.5,48.5C 44.5,45.8333 48.5,43.1667 52.5,40.5C 53.7079,39.7659 55.0413,39.4326 56.5,39.5C 59.5459,39.0324 62.3792,38.0324 65,36.5C 66.4595,36.8082 67.6261,37.4749 68.5,38.5 Z"/></g>
<g><path style="opacity:1" fill="#bf383b" d="M 126.5,75.5 C 126.5,74.1667 125.833,73.5 124.5,73.5C 126.762,69.6899 129.762,68.8566 133.5,71C 130.5,71.6917 128.167,73.1917 126.5,75.5 Z"/></g>
<g><path style="opacity:1" fill="#e2c6c2" d="M 52.5,40.5 C 48.5,43.1667 44.5,45.8333 40.5,48.5C 40.1667,48.5 39.8333,48.5 39.5,48.5C 39.7268,46.0025 41.0602,44.3359 43.5,43.5C 46.4183,42.1302 49.4183,41.1302 52.5,40.5 Z"/></g>
<g><path style="opacity:1" fill="#d03d3b" d="M 135.5,25.5 C 141.264,27.2147 146.93,29.2147 152.5,31.5C 160.122,34.9774 167.455,38.9774 174.5,43.5C 173.85,43.8039 173.183,44.1373 172.5,44.5C 171.636,42.8035 170.303,41.6368 168.5,41C 162.741,38.3993 157.074,36.5659 151.5,35.5C 151.5,34.5 151.5,33.5 151.5,32.5C 147.68,31.3588 143.847,30.0255 140,28.5C 137.154,30.0599 135.654,29.0599 135.5,25.5 Z"/></g>
<g><path style="opacity:1" fill="#d1413f" d="M 77.5,29.5 C 73.8333,31.8333 70.8333,34.8333 68.5,38.5C 67.6261,37.4749 66.4595,36.8082 65,36.5C 62.3792,38.0324 59.5459,39.0324 56.5,39.5C 57.7489,37.8639 59.4156,36.6972 61.5,36C 66.7412,33.544 72.0745,31.3774 77.5,29.5 Z"/></g>
<g><path style="opacity:1" fill="#e3bdbf" d="M 135.5,25.5 C 135.5,25.1667 135.5,24.8333 135.5,24.5C 141.032,25.4102 146.365,27.0768 151.5,29.5C 151.863,30.1835 152.196,30.8501 152.5,31.5C 146.93,29.2147 141.264,27.2147 135.5,25.5 Z"/></g>
<g><path style="opacity:1" fill="#df3631" d="M 118.5,19.5 C 118.833,19.5 119.167,19.5 119.5,19.5C 123.613,21.2825 127.946,22.6159 132.5,23.5C 133.391,24.1098 134.391,24.4431 135.5,24.5C 135.5,24.8333 135.5,25.1667 135.5,25.5C 135.654,29.0599 137.154,30.0599 140,28.5C 143.847,30.0255 147.68,31.3588 151.5,32.5C 151.5,33.5 151.5,34.5 151.5,35.5C 157.074,36.5659 162.741,38.3993 168.5,41C 170.303,41.6368 171.636,42.8035 172.5,44.5C 173.183,44.1373 173.85,43.8039 174.5,43.5C 174.833,43.5 175.167,43.5 175.5,43.5C 177.14,45.1688 178.474,47.1688 179.5,49.5C 181.396,50.4656 183.396,50.7989 185.5,50.5C 184.801,58.4749 184.301,66.4749 184,74.5C 183.667,71.1667 183.333,67.8333 183,64.5C 182.751,63.376 182.251,62.376 181.5,61.5C 181.167,61.8333 180.833,62.1667 180.5,62.5C 182.133,69.3785 181.8,76.3785 179.5,83.5C 179.667,84.5 179.833,85.5 180,86.5C 180.667,87.8333 181.333,87.8333 182,86.5C 182.588,91.5276 182.422,96.5276 181.5,101.5C 180.734,107.166 179.901,112.832 179,118.5C 176.852,124.433 175.018,130.433 173.5,136.5C 169.375,145.508 165.042,154.508 160.5,163.5C 158.453,165.55 156.786,167.883 155.5,170.5C 149.202,178.466 142.202,185.799 134.5,192.5C 132.184,193.806 129.85,195.139 127.5,196.5C 122.218,198.448 116.884,200.448 111.5,202.5C 106.031,202.002 105.031,200.168 108.5,197C 106.323,196.655 104.323,197.155 102.5,198.5C 101.833,198.167 101.167,197.833 100.5,197.5C 101.246,196.264 101.579,194.93 101.5,193.5C 98.4773,194.678 95.4773,194.678 92.5,193.5C 92.1667,193.5 91.8333,193.5 91.5,193.5C 88.271,191.058 85.271,188.392 82.5,185.5C 81.4187,183.236 80.0854,181.069 78.5,179C 79.1667,178 79.8333,177 80.5,176C 78.3225,174.798 75.9892,174.298 73.5,174.5C 72.7735,169.677 74.7735,166.677 79.5,165.5C 84.5475,165.993 89.2142,167.326 93.5,169.5C 93.5,170.167 93.8333,170.5 94.5,170.5C 94.3691,171.376 94.7025,172.043 95.5,172.5C 97.8284,173.217 99.9951,174.217 102,175.5C 103.727,175.354 103.894,174.687 102.5,173.5C 104.271,171.792 106.271,170.959 108.5,171C 107.692,171.308 107.025,171.808 106.5,172.5C 107.246,173.736 107.579,175.07 107.5,176.5C 108.978,176.762 110.311,176.429 111.5,175.5C 112.55,174.571 112.55,173.905 111.5,173.5C 112.11,172.609 112.443,171.609 112.5,170.5C 114.167,170.5 115.833,170.5 117.5,170.5C 119.179,170.108 120.846,169.608 122.5,169C 127.65,164.538 133.65,161.871 140.5,161C 143.041,156.725 145.208,152.225 147,147.5C 149.77,145.399 151.77,142.732 153,139.5C 153.885,134.621 155.385,129.954 157.5,125.5C 156.046,117.177 151.046,113.844 142.5,115.5C 140.833,115.5 139.167,115.5 137.5,115.5C 137.5,114.5 137.5,113.5 137.5,112.5C 138.833,112.5 140.167,112.5 141.5,112.5C 142.525,112.103 142.692,111.437 142,110.5C 140.223,108.21 138.056,106.543 135.5,105.5C 135.158,104.662 134.492,104.328 133.5,104.5C 133.5,103.833 133.167,103.5 132.5,103.5C 132.426,101.589 131.426,100.422 129.5,100C 129.833,99.6667 130.167,99.3333 130.5,99C 129.262,99.0773 128.262,98.9106 127.5,98.5C 129.35,97.3518 130.017,96.0185 129.5,94.5C 131.893,95.0948 133.727,96.4281 135,98.5C 137.056,95.691 136.223,94.3577 132.5,94.5C 132.343,93.1266 132.51,91.7932 133,90.5C 133.414,90.9574 133.914,91.2907 134.5,91.5C 137.102,90.3462 139.768,89.8462 142.5,90C 141.367,90.2399 140.867,90.7399 141,91.5C 142.101,93.3939 143.434,94.0606 145,93.5C 145.925,92.9535 146.758,92.2868 147.5,91.5C 146.873,90.5832 146.539,89.5832 146.5,88.5C 147.766,89.0899 149.099,89.5899 150.5,90C 151.289,93.0969 152.456,93.2636 154,90.5C 154.886,87.5598 154.052,86.5598 151.5,87.5C 149.603,83.0416 146.27,80.2083 141.5,79C 140.196,76.522 141.03,75.022 144,74.5C 146.961,76.0322 150.128,76.8655 153.5,77C 153.93,77.9195 154.264,78.7528 154.5,79.5C 156.518,78.1865 157.685,78.8532 158,81.5C 158.912,79.3415 159.745,77.1748 160.5,75C 157.893,73.4278 155.559,71.5945 153.5,69.5C 151.17,67.4156 150.003,64.749 150,61.5C 149.329,60.7476 148.496,60.4142 147.5,60.5C 144.393,60.6488 141.393,60.1488 138.5,59C 133.353,56.0156 129.02,52.1823 125.5,47.5C 125.573,45.9731 124.906,44.9731 123.5,44.5C 123.5,44.8333 123.5,45.1667 123.5,45.5C 122.876,45.9169 122.543,46.5836 122.5,47.5C 124.753,49.5973 125.42,51.9306 124.5,54.5C 124.167,54.5 123.833,54.5 123.5,54.5C 122.596,53.791 122.263,52.791 122.5,51.5C 121.5,51.5 120.5,51.5 119.5,51.5C 118.833,51.1667 118.167,50.8333 117.5,50.5C 117.5,49.8333 117.167,49.5 116.5,49.5C 116.167,48.1667 115.833,48.1667 115.5,49.5C 116.265,52.0961 116.599,54.7628 116.5,57.5C 113.833,57.5 111.167,57.5 108.5,57.5C 101.694,58.1724 95.027,59.1724 88.5,60.5C 84.2137,61.9287 80.2137,63.9287 76.5,66.5C 75.8333,66.5 75.5,66.8333 75.5,67.5C 75.5,68.5 75.5,69.5 75.5,70.5C 73.857,70.4802 72.5237,71.1468 71.5,72.5C 70.3162,70.533 70.6495,68.8664 72.5,67.5C 72.7678,65.901 72.4345,64.5676 71.5,63.5C 69.8333,63.5 68.1667,63.5 66.5,63.5C 66.7852,61.712 66.4519,60.0453 65.5,58.5C 58.5808,55.3229 58.9142,53.3229 66.5,52.5C 65.0229,46.0899 61.5229,44.0899 56,46.5C 54.3282,45.4982 53.1616,44.3316 52.5,43C 54.6341,42.8727 56.8007,43.0393 59,43.5C 60.6581,43.3248 61.9914,42.6582 63,41.5C 63.2189,42.938 63.7189,44.2713 64.5,45.5C 64.9162,42.6596 66.9162,40.8263 70.5,40C 69.5842,39.7216 68.9175,39.2216 68.5,38.5C 70.8333,34.8333 73.8333,31.8333 77.5,29.5C 79.1016,27.9261 81.1016,27.2594 83.5,27.5C 90.5158,25.9404 97.1825,23.607 103.5,20.5C 108.263,18.3278 113.263,17.9945 118.5,19.5 Z M 117.5,50.5 C 118.167,50.8333 118.833,51.1667 119.5,51.5C 120.091,52.1515 120.757,52.8182 121.5,53.5C 119.219,54.2617 117.886,53.2617 117.5,50.5 Z M 123.5,44.5 C 124.906,44.9731 125.573,45.9731 125.5,47.5C 124.5,47.1667 123.833,46.5 123.5,45.5C 123.5,45.1667 123.5,44.8333 123.5,44.5 Z M 94.5,170.5 C 93.8333,170.5 93.5,170.167 93.5,169.5C 94.0456,166.248 95.7123,165.248 98.5,166.5C 97.4513,168.216 96.118,169.549 94.5,170.5 Z M 129.5,166.5 C 129.709,167.922 130.209,169.255 131,170.5C 131.844,168.537 131.344,167.204 129.5,166.5 Z M 112.5,170.5 C 112.443,171.609 112.11,172.609 111.5,173.5C 110.542,173.953 109.708,174.619 109,175.5C 108.36,172.632 109.527,170.965 112.5,170.5 Z"/></g>
<g><path style="opacity:1" fill="#ba3b39" d="M 147.5,60.5 C 148.496,60.4142 149.329,60.7476 150,61.5C 150.003,64.749 151.17,67.4156 153.5,69.5C 151.983,69.4894 150.816,68.8228 150,67.5C 149.256,65.1003 148.423,62.767 147.5,60.5 Z"/></g>
<g><path style="opacity:1" fill="#b03832" d="M 143.5,62.5 C 147.049,63.3317 148.382,65.3317 147.5,68.5C 144.668,67.5036 143.335,65.5036 143.5,62.5 Z"/></g>
<g><path style="opacity:1" fill="#c34e49" d="M 108.5,57.5 C 109.263,58.2679 110.263,58.7679 111.5,59C 111,59.5 110.5,60 110,60.5C 102.907,59.729 95.7404,59.729 88.5,60.5C 95.027,59.1724 101.694,58.1724 108.5,57.5 Z"/></g>
<g><path style="opacity:1" fill="#c13d3b" d="M 115.5,49.5 C 115.833,49.5 116.167,49.5 116.5,49.5C 117.167,49.5 117.5,49.8333 117.5,50.5C 117.886,53.2617 119.219,54.2617 121.5,53.5C 120.757,52.8182 120.091,52.1515 119.5,51.5C 120.5,51.5 121.5,51.5 122.5,51.5C 122.263,52.791 122.596,53.791 123.5,54.5C 121.429,55.9451 119.096,56.9451 116.5,57.5C 116.599,54.7628 116.265,52.0961 115.5,49.5 Z"/></g>
<g><path style="opacity:1" fill="#c63a34" d="M 123.5,45.5 C 123.833,46.5 124.5,47.1667 125.5,47.5C 127.305,51.7729 129.639,55.7729 132.5,59.5C 132.333,59.8333 132.167,60.1667 132,60.5C 129.337,58.6664 126.837,56.6664 124.5,54.5C 125.42,51.9306 124.753,49.5973 122.5,47.5C 122.543,46.5836 122.876,45.9169 123.5,45.5 Z"/></g>
<g><path style="opacity:1" fill="#c34740" d="M 100.5,20.5 C 101.5,20.5 102.5,20.5 103.5,20.5C 97.1825,23.607 90.5158,25.9404 83.5,27.5C 88.8079,24.6108 94.4746,22.2775 100.5,20.5 Z"/></g>
<g><path style="opacity:1" fill="#ebacae" d="M 119.5,19.5 C 124.264,19.7689 128.597,21.1022 132.5,23.5C 127.946,22.6159 123.613,21.2825 119.5,19.5 Z"/></g>
<g><path style="opacity:1" fill="#edbabe" d="M 118.5,19.5 C 113.263,17.9945 108.263,18.3278 103.5,20.5C 102.5,20.5 101.5,20.5 100.5,20.5C 101.152,19.2749 102.319,18.6083 104,18.5C 106.657,18.0936 109.324,17.7603 112,17.5C 114.544,17.336 116.71,18.0027 118.5,19.5 Z"/></g>
<g><path style="opacity:1" fill="#c73d3b" d="M 39.5,48.5 C 39.8333,48.5 40.1667,48.5 40.5,48.5C 40.2172,49.2891 39.7172,49.9558 39,50.5C 38.8333,53.6667 38.6667,56.8333 38.5,60C 40.1241,69.6586 40.7907,79.4919 40.5,89.5C 39.8333,87.1667 39.1667,84.8333 38.5,82.5C 37.8815,71.5107 37.5482,60.5107 37.5,49.5C 38.1667,49.1667 38.8333,48.8333 39.5,48.5 Z"/></g>
<g><path style="opacity:1" fill="#c5352e" d="M 94.5,71.5 C 93.8902,72.391 93.5569,73.391 93.5,74.5C 91.4068,75.0447 89.4068,75.878 87.5,77C 72.2211,91.962 68.5544,109.462 76.5,129.5C 74.9731,129.573 73.9731,128.906 73.5,127.5C 70.6673,121.332 69.3339,114.832 69.5,108C 69.8097,90.1813 78.1431,78.0147 94.5,71.5 Z"/></g>
<g><path style="opacity:1" fill="#dd302a" d="M 129.5,83.5 C 130.239,83.369 130.906,83.5357 131.5,84C 130.167,85 130.167,86 131.5,87C 134.686,87.4657 137.519,87.2991 140,86.5C 140.333,87.1667 140.667,87.8333 141,88.5C 142.828,87.2475 144.661,87.2475 146.5,88.5C 146.539,89.5832 146.873,90.5832 147.5,91.5C 146.758,92.2868 145.925,92.9535 145,93.5C 143.434,94.0606 142.101,93.3939 141,91.5C 140.867,90.7399 141.367,90.2399 142.5,90C 139.768,89.8462 137.102,90.3462 134.5,91.5C 133.914,91.2907 133.414,90.9574 133,90.5C 132.51,91.7932 132.343,93.1266 132.5,94.5C 136.223,94.3577 137.056,95.691 135,98.5C 133.727,96.4281 131.893,95.0948 129.5,94.5C 130.017,96.0185 129.35,97.3518 127.5,98.5C 128.262,98.9106 129.262,99.0773 130.5,99C 130.167,99.3333 129.833,99.6667 129.5,100C 131.426,100.422 132.426,101.589 132.5,103.5C 131.443,104.206 131.776,104.539 133.5,104.5C 133.5,105.167 133.833,105.5 134.5,105.5C 134.675,107.621 134.341,109.621 133.5,111.5C 132.209,111.263 131.209,111.596 130.5,112.5C 130.5,113.167 130.167,113.5 129.5,113.5C 129.167,113.5 128.833,113.5 128.5,113.5C 128.5,112.833 128.167,112.5 127.5,112.5C 127.5,111.833 127.5,111.167 127.5,110.5C 127.631,109.761 127.464,109.094 127,108.5C 125.333,109.167 123.667,109.833 122,110.5C 121.683,108.699 121.016,108.366 120,109.5C 119.308,108.975 118.808,108.308 118.5,107.5C 120.009,105.38 119.676,103.713 117.5,102.5C 112.833,101.833 108.167,101.167 103.5,100.5C 103.082,99.7784 102.416,99.2784 101.5,99C 108.167,98.6667 114.833,98.3333 121.5,98C 123.889,97.2612 125.889,96.0946 127.5,94.5C 127.158,93.6618 126.492,93.3284 125.5,93.5C 122.372,92.7941 119.706,91.4608 117.5,89.5C 118.167,89.5 118.833,89.5 119.5,89.5C 122.216,89.3215 124.883,88.8215 127.5,88C 128.999,87.1618 129.332,86.3285 128.5,85.5C 128.5,85.1667 128.5,84.8333 128.5,84.5C 129.167,84.5 129.5,84.1667 129.5,83.5 Z"/></g>
<g><path style="opacity:1" fill="#e6b3b0" d="M 186.5,68.5 C 186.666,74.5092 186.499,80.5092 186,86.5C 185.963,88.9739 185.13,90.9739 183.5,92.5C 184.691,84.3841 185.691,76.3841 186.5,68.5 Z"/></g>
<g><path style="opacity:1" fill="#c53f3e" d="M 40.5,91.5 C 41.2216,91.9175 41.7216,92.5842 42,93.5C 43.1569,100.138 43.9903,106.805 44.5,113.5C 42.3605,106.44 41.0272,99.1067 40.5,91.5 Z"/></g>
<g><path style="opacity:1" fill="#b14b49" d="M 84.5,103.5 C 83.596,104.209 83.2627,105.209 83.5,106.5C 81.883,104.02 81.5497,101.354 82.5,98.5C 83.562,100.022 84.2287,101.688 84.5,103.5 Z"/></g>
<g><path style="opacity:1" fill="#cb332e" d="M 101.5,101.5 C 99.3021,102.165 96.9688,102.832 94.5,103.5C 94.8627,104.183 95.1961,104.85 95.5,105.5C 92.8333,105.833 92.8333,106.167 95.5,106.5C 95.5,107.167 95.8333,107.5 96.5,107.5C 96.5,107.833 96.5,108.167 96.5,108.5C 92.6696,108.496 91.6696,110.162 93.5,113.5C 93.1667,113.5 92.8333,113.5 92.5,113.5C 92.5,112.833 92.1667,112.5 91.5,112.5C 91.5,111.833 91.1667,111.5 90.5,111.5C 88.4502,107.894 86.7835,104.06 85.5,100C 85.6448,99.228 85.9781,98.5613 86.5,98C 91.4003,99.2366 96.4003,100.403 101.5,101.5 Z M 92.5,104.5 C 92.5386,103.244 92.0386,102.244 91,101.5C 90.4153,102.998 90.9153,103.998 92.5,104.5 Z"/></g>
<g><path style="opacity:1" fill="#e4bebe" d="M 38.5,82.5 C 39.1667,84.8333 39.8333,87.1667 40.5,89.5C 40.5,90.1667 40.5,90.8333 40.5,91.5C 41.0272,99.1067 42.3605,106.44 44.5,113.5C 45.0766,118.723 46.41,123.723 48.5,128.5C 49.5,131.833 50.5,135.167 51.5,138.5C 50.0941,136.526 48.5941,134.526 47,132.5C 45.6347,124.279 43.6347,116.279 41,108.5C 39.0834,100.035 38.2501,91.3681 38.5,82.5 Z"/></g>
<g><path style="opacity:1" fill="#bb3336" d="M 134.5,105.5 C 134.833,105.5 135.167,105.5 135.5,105.5C 138.334,108.519 137.667,110.519 133.5,111.5C 134.341,109.621 134.675,107.621 134.5,105.5 Z"/></g>
<g><path style="opacity:1" fill="#b2352f" d="M 141.5,112.5 C 140.167,112.5 138.833,112.5 137.5,112.5C 137.5,113.5 137.5,114.5 137.5,115.5C 139.167,115.5 140.833,115.5 142.5,115.5C 140.735,116.461 138.735,116.795 136.5,116.5C 135.081,115.549 133.415,115.216 131.5,115.5C 131.158,114.662 130.492,114.328 129.5,114.5C 129.5,114.167 129.5,113.833 129.5,113.5C 130.167,113.5 130.5,113.167 130.5,112.5C 134.299,112.701 137.966,112.701 141.5,112.5 Z"/></g>
<g><path style="opacity:1" fill="#bb3533" d="M 136.5,116.5 C 140.312,117.324 144.312,117.824 148.5,118C 149.942,118.377 150.942,119.21 151.5,120.5C 146.649,118.423 141.649,118.09 136.5,119.5C 137.127,120.417 137.461,121.417 137.5,122.5C 134.145,120.815 133.811,118.815 136.5,116.5 Z"/></g>
<g><path style="opacity:1" fill="#de3531" d="M 101.5,101.5 C 106.74,102.449 112.073,102.782 117.5,102.5C 119.676,103.713 120.009,105.38 118.5,107.5C 118.808,108.308 119.308,108.975 120,109.5C 121.016,108.366 121.683,108.699 122,110.5C 123.667,109.833 125.333,109.167 127,108.5C 127.464,109.094 127.631,109.761 127.5,110.5C 126.167,111.167 126.167,111.833 127.5,112.5C 128.167,112.5 128.5,112.833 128.5,113.5C 128.5,114.167 128.833,114.5 129.5,114.5C 129.842,115.338 130.508,115.672 131.5,115.5C 134.37,119.672 133.036,121.339 127.5,120.5C 128.6,121.558 129.934,122.392 131.5,123C 136.294,124.007 138.294,123.84 137.5,122.5C 137.461,121.417 137.127,120.417 136.5,119.5C 141.649,118.09 146.649,118.423 151.5,120.5C 151.995,122.452 152.328,124.452 152.5,126.5C 151.901,129.212 150.901,131.212 149.5,132.5C 148.022,132.238 146.689,132.571 145.5,133.5C 147.559,134.951 148.559,136.951 148.5,139.5C 145.795,139.38 145.128,140.38 146.5,142.5C 145.5,143.833 144.5,145.167 143.5,146.5C 141.833,145.833 140.167,145.167 138.5,144.5C 134.016,152.019 135.016,153.019 141.5,147.5C 141.807,148.887 141.807,150.554 141.5,152.5C 139.37,155.737 136.37,157.737 132.5,158.5C 123.601,160.638 114.601,160.971 105.5,159.5C 102.658,158.996 101.325,157.329 101.5,154.5C 100.041,154.567 98.7079,154.234 97.5,153.5C 96.8902,152.609 96.5569,151.609 96.5,150.5C 96.2155,148.585 96.5489,146.919 97.5,145.5C 100.031,145.835 102.864,146.501 106,147.5C 109.486,147.117 112.652,145.95 115.5,144C 112.965,143.383 110.632,143.883 108.5,145.5C 107.893,145.376 107.56,145.043 107.5,144.5C 107.389,143.883 107.056,143.383 106.5,143C 112.387,142.001 114.72,138.834 113.5,133.5C 110.305,133.584 109.139,134.917 110,137.5C 108.333,138.733 106.833,140.067 105.5,141.5C 104.448,141.649 103.448,141.483 102.5,141C 103.833,139 105.167,137 106.5,135C 105,134.167 103.833,133 103,131.5C 100.919,133.324 101.085,134.991 103.5,136.5C 103.376,137.107 103.043,137.44 102.5,137.5C 100.718,138.72 98.7179,139.386 96.5,139.5C 96.7678,137.901 96.4345,136.568 95.5,135.5C 95.5654,135.062 95.3988,134.728 95,134.5C 93.8289,135.893 92.3289,136.727 90.5,137C 85.5093,138.18 82.5093,136.346 81.5,131.5C 83.2345,129.765 85.2345,128.432 87.5,127.5C 89.3969,127.728 90.7303,128.728 91.5,130.5C 90.4534,133.124 88.7867,133.958 86.5,133C 89.7571,135.216 92.5904,134.716 95,131.5C 96.4982,127.234 95.3315,124.234 91.5,122.5C 91.5,121.833 91.5,121.167 91.5,120.5C 87.791,116.414 85.1243,111.747 83.5,106.5C 83.2627,105.209 83.596,104.209 84.5,103.5C 86.1153,106.45 88.1153,109.116 90.5,111.5C 91.1667,111.5 91.5,111.833 91.5,112.5C 92.1667,112.5 92.5,112.833 92.5,113.5C 92.8333,114.833 93.1667,114.833 93.5,113.5C 91.6696,110.162 92.6696,108.496 96.5,108.5C 99.1667,108.167 99.1667,107.833 96.5,107.5C 95.8333,107.5 95.5,107.167 95.5,106.5C 95.5,106.167 95.5,105.833 95.5,105.5C 95.1961,104.85 94.8627,104.183 94.5,103.5C 96.9688,102.832 99.3021,102.165 101.5,101.5 Z M 113.5,133.5 C 113.038,138.456 110.371,141.122 105.5,141.5C 106.833,140.067 108.333,138.733 110,137.5C 109.139,134.917 110.305,133.584 113.5,133.5 Z"/></g>
<g><path style="opacity:1" fill="#dcc3c5" d="M 183.5,98.5 C 183.661,108.585 181.661,118.085 177.5,127C 178.67,128.587 179.67,130.253 180.5,132C 178.86,133.395 177.36,134.895 176,136.5C 175.667,135.833 175.333,135.167 175,134.5C 174.722,135.416 174.222,136.082 173.5,136.5C 175.018,130.433 176.852,124.433 179,118.5C 179.901,112.832 180.734,107.166 181.5,101.5C 182.167,100.5 182.833,99.5 183.5,98.5 Z"/></g>
<g><path style="opacity:1" fill="#ce3831" d="M 151.5,120.5 C 153.141,121.871 154.141,123.704 154.5,126C 152.089,135.873 147.756,144.706 141.5,152.5C 141.807,150.554 141.807,148.887 141.5,147.5C 135.016,153.019 134.016,152.019 138.5,144.5C 140.167,145.167 141.833,145.833 143.5,146.5C 144.5,145.167 145.5,143.833 146.5,142.5C 145.128,140.38 145.795,139.38 148.5,139.5C 148.559,136.951 147.559,134.951 145.5,133.5C 146.689,132.571 148.022,132.238 149.5,132.5C 150.901,131.212 151.901,129.212 152.5,126.5C 152.328,124.452 151.995,122.452 151.5,120.5 Z"/></g>
<g><path style="opacity:1" fill="#c13531" d="M 91.5,120.5 C 91.5,121.167 91.5,121.833 91.5,122.5C 85.6198,122.715 82.2865,125.715 81.5,131.5C 80.5207,132.765 79.5207,134.099 78.5,135.5C 80.1932,136.228 81.6932,137.228 83,138.5C 82.5559,142.538 82.7225,146.538 83.5,150.5C 81.7202,149.01 81.0535,147.01 81.5,144.5C 80.5,144.5 79.5,144.5 78.5,144.5C 79.968,143.221 80.6347,141.554 80.5,139.5C 78.0532,139.615 76.0532,140.615 74.5,142.5C 74.3398,140.801 74.5065,139.134 75,137.5C 76.8524,136.305 78.019,134.638 78.5,132.5C 79.3941,124.672 83.7275,120.672 91.5,120.5 Z"/></g>
<g><path style="opacity:1" fill="#bf3430" d="M 113.5,133.5 C 114.72,138.834 112.387,142.001 106.5,143C 107.056,143.383 107.389,143.883 107.5,144.5C 104.752,144.598 104.086,143.598 105.5,141.5C 110.371,141.122 113.038,138.456 113.5,133.5 Z"/></g>
<g><path style="opacity:1" fill="#be433e" d="M 95.5,135.5 C 96.4345,136.568 96.7678,137.901 96.5,139.5C 98.7179,139.386 100.718,138.72 102.5,137.5C 102.033,140.297 100.367,141.631 97.5,141.5C 97.5,142.833 97.5,144.167 97.5,145.5C 96.5489,146.919 96.2155,148.585 96.5,150.5C 94.4896,145.716 94.1562,140.716 95.5,135.5 Z"/></g>
<g><path style="opacity:1" fill="#e23531" d="M 58.5,153.5 C 58.5,153.167 58.5,152.833 58.5,152.5C 58.2593,146.824 60.0926,146.491 64,151.5C 66.0111,148.99 68.1778,146.657 70.5,144.5C 70.8333,145.167 71.1667,145.833 71.5,146.5C 70.0629,148.577 69.3962,150.91 69.5,153.5C 72.8537,152.49 76.187,152.49 79.5,153.5C 80.6721,153.081 81.6721,152.415 82.5,151.5C 83.8353,153.647 83.6686,155.647 82,157.5C 76.9343,155.812 73.4343,157.479 71.5,162.5C 72.8715,164.62 72.2048,165.62 69.5,165.5C 68.3114,164.205 67.4781,162.205 67,159.5C 65.4877,161.957 64.1544,161.957 63,159.5C 62.5723,156.927 62.9057,154.594 64,152.5C 62.3195,154.428 60.4862,154.761 58.5,153.5 Z"/></g>
<g><path style="opacity:1" fill="#d7cccd" d="M 173.5,136.5 C 173.489,138.547 173.156,140.547 172.5,142.5C 174.363,146.307 174.363,150.307 172.5,154.5C 171.749,153.624 171.249,152.624 171,151.5C 170.586,151.957 170.086,152.291 169.5,152.5C 167.161,156.826 164.161,160.493 160.5,163.5C 165.042,154.508 169.375,145.508 173.5,136.5 Z"/></g>
<g><path style="opacity:1" fill="#ddcbce" d="M 51.5,139.5 C 53.0834,143.072 54.5834,146.738 56,150.5C 56.7083,151.381 57.5416,152.047 58.5,152.5C 58.5,152.833 58.5,153.167 58.5,153.5C 60.1667,156.833 61.8333,160.167 63.5,163.5C 61.0882,163.306 60.0882,161.973 60.5,159.5C 57.974,159.313 56.3073,157.98 55.5,155.5C 54.1461,150.14 52.8127,144.807 51.5,139.5 Z"/></g>
<g><path style="opacity:1" fill="#c33935" d="M 97.5,153.5 C 98.7079,154.234 100.041,154.567 101.5,154.5C 101.325,157.329 102.658,158.996 105.5,159.5C 114.601,160.971 123.601,160.638 132.5,158.5C 129.578,160.531 126.245,161.698 122.5,162C 117.5,162.667 112.5,162.667 107.5,162C 102.751,160.746 99.4178,157.912 97.5,153.5 Z"/></g>
<g><path style="opacity:1" fill="#d83834" d="M 48.5,128.5 C 49.8816,129.801 51.5483,130.634 53.5,131C 52.4905,136.156 53.4905,140.99 56.5,145.5C 59.1545,146.906 61.8211,147.24 64.5,146.5C 65.1494,144.376 65.9827,142.376 67,140.5C 67.2492,141.624 67.7492,142.624 68.5,143.5C 68.8333,143.167 69.1667,142.833 69.5,142.5C 68.6744,141.549 68.5078,140.549 69,139.5C 70.7058,140.308 71.5391,141.641 71.5,143.5C 72.5,143.5 73.5,143.5 74.5,143.5C 73.537,144.363 73.537,145.03 74.5,145.5C 75.7362,144.754 77.0695,144.421 78.5,144.5C 79.5,144.5 80.5,144.5 81.5,144.5C 81.0535,147.01 81.7202,149.01 83.5,150.5C 88.198,152.374 90.8646,155.874 91.5,161C 96.1172,161.639 99.7838,163.806 102.5,167.5C 107.749,168.004 112.749,169.004 117.5,170.5C 115.833,170.5 114.167,170.5 112.5,170.5C 109.527,170.965 108.36,172.632 109,175.5C 109.708,174.619 110.542,173.953 111.5,173.5C 112.55,173.905 112.55,174.571 111.5,175.5C 110.311,176.429 108.978,176.762 107.5,176.5C 107.579,175.07 107.246,173.736 106.5,172.5C 107.025,171.808 107.692,171.308 108.5,171C 106.271,170.959 104.271,171.792 102.5,173.5C 103.894,174.687 103.727,175.354 102,175.5C 99.9951,174.217 97.8284,173.217 95.5,172.5C 94.7025,172.043 94.3691,171.376 94.5,170.5C 96.118,169.549 97.4513,168.216 98.5,166.5C 95.7123,165.248 94.0456,166.248 93.5,169.5C 89.2142,167.326 84.5475,165.993 79.5,165.5C 74.7735,166.677 72.7735,169.677 73.5,174.5C 75.9892,174.298 78.3225,174.798 80.5,176C 79.8333,177 79.1667,178 78.5,179C 80.0854,181.069 81.4187,183.236 82.5,185.5C 75.4191,178.757 69.0858,171.423 63.5,163.5C 61.8333,160.167 60.1667,156.833 58.5,153.5C 60.4862,154.761 62.3195,154.428 64,152.5C 62.9057,154.594 62.5723,156.927 63,159.5C 64.1544,161.957 65.4877,161.957 67,159.5C 67.4781,162.205 68.3114,164.205 69.5,165.5C 72.2048,165.62 72.8715,164.62 71.5,162.5C 73.4343,157.479 76.9343,155.812 82,157.5C 83.6686,155.647 83.8353,153.647 82.5,151.5C 81.6721,152.415 80.6721,153.081 79.5,153.5C 76.187,152.49 72.8537,152.49 69.5,153.5C 69.3962,150.91 70.0629,148.577 71.5,146.5C 71.1667,145.833 70.8333,145.167 70.5,144.5C 68.1778,146.657 66.0111,148.99 64,151.5C 60.0926,146.491 58.2593,146.824 58.5,152.5C 57.5416,152.047 56.7083,151.381 56,150.5C 54.5834,146.738 53.0834,143.072 51.5,139.5C 51.5,139.167 51.5,138.833 51.5,138.5C 50.5,135.167 49.5,131.833 48.5,128.5 Z M 85.5,155.5 C 84.5244,156.815 83.5244,158.148 82.5,159.5C 82.8333,159.833 83.1667,160.167 83.5,160.5C 85.5652,160.047 87.2318,159.047 88.5,157.5C 87.9953,156.081 86.9953,155.415 85.5,155.5 Z M 94.5,170.5 C 93.8333,170.5 93.5,170.167 93.5,169.5C 94.0456,166.248 95.7123,165.248 98.5,166.5C 97.4513,168.216 96.118,169.549 94.5,170.5 Z"/></g>
<g><path style="opacity:1" fill="#e7aba9" d="M 160.5,163.5 C 159.99,166.674 158.323,169.008 155.5,170.5C 156.786,167.883 158.453,165.55 160.5,163.5 Z"/></g>
<g><path style="opacity:1" fill="#e8c0bf" d="M 155.5,170.5 C 151.537,177.979 146.203,184.479 139.5,190C 137.922,191.094 136.255,191.928 134.5,192.5C 142.202,185.799 149.202,178.466 155.5,170.5 Z"/></g>
<g><path style="opacity:1" fill="#e9bab9" d="M 91.5,193.5 C 91.8333,193.5 92.1667,193.5 92.5,193.5C 94.8333,195.5 97.1667,197.5 99.5,199.5C 95.9098,198.558 93.2431,196.558 91.5,193.5 Z"/></g>
<g><path style="opacity:1" fill="#d03f3c" d="M 92.5,193.5 C 95.4773,194.678 98.4773,194.678 101.5,193.5C 101.579,194.93 101.246,196.264 100.5,197.5C 101.167,197.833 101.833,198.167 102.5,198.5C 104.323,197.155 106.323,196.655 108.5,197C 105.031,200.168 106.031,202.002 111.5,202.5C 116.884,200.448 122.218,198.448 127.5,196.5C 122.626,199.859 117.459,202.859 112,205.5C 107.93,203.255 103.764,201.255 99.5,199.5C 97.1667,197.5 94.8333,195.5 92.5,193.5 Z"/></g>
</svg>
